<mxfile host="app.diagrams.net" modified="2021-04-04T09:29:52.576Z" agent="5.0 (Windows NT 10.0; Win64; x64) AppleWebKit/537.36 (KHTML, like Gecko) Chrome/88.0.4324.192 Safari/537.36 OPR/74.0.3911.232" etag="_HIapmqeD6TWI3Hbm8CV" version="14.5.7" type="github">
  <diagram id="AWnsMN2oZxYFVrp0OF94" name="Page-1">
    <mxGraphModel dx="1221" dy="645" grid="1" gridSize="10" guides="1" tooltips="1" connect="1" arrows="1" fold="1" page="1" pageScale="1" pageWidth="850" pageHeight="1100" math="0" shadow="0">
      <root>
        <mxCell id="0" />
        <mxCell id="1" parent="0" />
        <mxCell id="vFDzJ-DQBdxWpcwLOdHJ-3" value="" style="ellipse;whiteSpace=wrap;html=1;aspect=fixed;fillColor=#000000;" vertex="1" parent="1">
          <mxGeometry x="425" y="150" width="20" height="20" as="geometry" />
        </mxCell>
        <mxCell id="vFDzJ-DQBdxWpcwLOdHJ-4" value="" style="endArrow=classic;html=1;exitX=0.5;exitY=1;exitDx=0;exitDy=0;" edge="1" parent="1" source="vFDzJ-DQBdxWpcwLOdHJ-3">
          <mxGeometry width="50" height="50" relative="1" as="geometry">
            <mxPoint x="370" y="410" as="sourcePoint" />
            <mxPoint x="434" y="220" as="targetPoint" />
          </mxGeometry>
        </mxCell>
        <mxCell id="vFDzJ-DQBdxWpcwLOdHJ-5" value="&lt;font style=&quot;font-size: 20px&quot;&gt;Xem Menu&lt;/font&gt;" style="rounded=0;whiteSpace=wrap;html=1;strokeColor=#000000;fillColor=#CCCCCC;" vertex="1" parent="1">
          <mxGeometry x="342.5" y="230" width="185" height="60" as="geometry" />
        </mxCell>
        <mxCell id="vFDzJ-DQBdxWpcwLOdHJ-9" value="" style="endArrow=classic;html=1;exitX=0.5;exitY=1;exitDx=0;exitDy=0;" edge="1" parent="1" source="vFDzJ-DQBdxWpcwLOdHJ-5">
          <mxGeometry width="50" height="50" relative="1" as="geometry">
            <mxPoint x="445" y="180" as="sourcePoint" />
            <mxPoint x="435" y="340" as="targetPoint" />
          </mxGeometry>
        </mxCell>
        <mxCell id="vFDzJ-DQBdxWpcwLOdHJ-10" value="&lt;font style=&quot;font-size: 20px&quot;&gt;Có cà phê mình muốn?&lt;/font&gt;" style="rounded=0;whiteSpace=wrap;html=1;strokeColor=#000000;fillColor=#CCCCCC;" vertex="1" parent="1">
          <mxGeometry x="342.5" y="350" width="185" height="60" as="geometry" />
        </mxCell>
        <mxCell id="vFDzJ-DQBdxWpcwLOdHJ-12" value="" style="rhombus;whiteSpace=wrap;html=1;strokeColor=#000000;fillColor=#999999;" vertex="1" parent="1">
          <mxGeometry x="416.25" y="440" width="37.5" height="30" as="geometry" />
        </mxCell>
        <mxCell id="vFDzJ-DQBdxWpcwLOdHJ-14" value="" style="endArrow=classic;html=1;exitX=0.5;exitY=1;exitDx=0;exitDy=0;entryX=0.5;entryY=0;entryDx=0;entryDy=0;" edge="1" parent="1" source="vFDzJ-DQBdxWpcwLOdHJ-10" target="vFDzJ-DQBdxWpcwLOdHJ-12">
          <mxGeometry width="50" height="50" relative="1" as="geometry">
            <mxPoint x="445" y="300" as="sourcePoint" />
            <mxPoint x="445" y="350" as="targetPoint" />
          </mxGeometry>
        </mxCell>
        <mxCell id="vFDzJ-DQBdxWpcwLOdHJ-16" value="" style="endArrow=classic;html=1;exitX=0.5;exitY=1;exitDx=0;exitDy=0;" edge="1" parent="1" source="vFDzJ-DQBdxWpcwLOdHJ-12">
          <mxGeometry width="50" height="50" relative="1" as="geometry">
            <mxPoint x="445" y="300" as="sourcePoint" />
            <mxPoint x="435" y="720" as="targetPoint" />
            <Array as="points">
              <mxPoint x="435" y="500" />
              <mxPoint x="435" y="550" />
              <mxPoint x="435" y="600" />
            </Array>
          </mxGeometry>
        </mxCell>
        <mxCell id="vFDzJ-DQBdxWpcwLOdHJ-17" value="" style="endArrow=classic;html=1;exitX=1;exitY=0.5;exitDx=0;exitDy=0;" edge="1" parent="1" source="vFDzJ-DQBdxWpcwLOdHJ-12">
          <mxGeometry width="50" height="50" relative="1" as="geometry">
            <mxPoint x="426.25" y="465" as="sourcePoint" />
            <mxPoint x="560" y="455" as="targetPoint" />
          </mxGeometry>
        </mxCell>
        <mxCell id="vFDzJ-DQBdxWpcwLOdHJ-18" value="&lt;font style=&quot;font-size: 20px&quot;&gt;Không có&lt;/font&gt;" style="text;html=1;strokeColor=none;fillColor=none;align=center;verticalAlign=middle;whiteSpace=wrap;rounded=0;" vertex="1" parent="1">
          <mxGeometry x="430" y="550" width="120" height="20" as="geometry" />
        </mxCell>
        <mxCell id="vFDzJ-DQBdxWpcwLOdHJ-20" value="" style="ellipse;whiteSpace=wrap;html=1;aspect=fixed;strokeColor=#000000;fillColor=#FFFFFF;" vertex="1" parent="1">
          <mxGeometry x="420" y="730" width="30" height="30" as="geometry" />
        </mxCell>
        <mxCell id="vFDzJ-DQBdxWpcwLOdHJ-21" value="" style="ellipse;whiteSpace=wrap;html=1;aspect=fixed;fillColor=#000000;" vertex="1" parent="1">
          <mxGeometry x="425" y="735" width="20" height="20" as="geometry" />
        </mxCell>
        <mxCell id="vFDzJ-DQBdxWpcwLOdHJ-25" value="&lt;font style=&quot;font-size: 20px&quot;&gt;Có&lt;/font&gt;" style="text;html=1;strokeColor=none;fillColor=none;align=center;verticalAlign=middle;whiteSpace=wrap;rounded=0;" vertex="1" parent="1">
          <mxGeometry x="490" y="430" width="120" height="20" as="geometry" />
        </mxCell>
        <mxCell id="vFDzJ-DQBdxWpcwLOdHJ-26" value="&lt;span style=&quot;font-size: 20px&quot;&gt;Đặt nước uống&lt;/span&gt;" style="rounded=0;whiteSpace=wrap;html=1;strokeColor=#000000;fillColor=#CCCCCC;" vertex="1" parent="1">
          <mxGeometry x="580" y="430" width="185" height="60" as="geometry" />
        </mxCell>
        <mxCell id="vFDzJ-DQBdxWpcwLOdHJ-27" value="&lt;font style=&quot;font-size: 20px&quot;&gt;Cà phê&lt;/font&gt;" style="ellipse;whiteSpace=wrap;html=1;aspect=fixed;strokeColor=#000000;fillColor=#CCCCCC;" vertex="1" parent="1">
          <mxGeometry x="632.5" y="260" width="80" height="80" as="geometry" />
        </mxCell>
        <mxCell id="vFDzJ-DQBdxWpcwLOdHJ-34" value="" style="endArrow=none;dashed=1;html=1;entryX=0.5;entryY=1;entryDx=0;entryDy=0;" edge="1" parent="1" target="vFDzJ-DQBdxWpcwLOdHJ-27">
          <mxGeometry width="50" height="50" relative="1" as="geometry">
            <mxPoint x="673" y="420" as="sourcePoint" />
            <mxPoint x="682.5" y="340" as="targetPoint" />
          </mxGeometry>
        </mxCell>
        <mxCell id="vFDzJ-DQBdxWpcwLOdHJ-35" value="" style="endArrow=classic;html=1;entryX=0.5;entryY=0;entryDx=0;entryDy=0;" edge="1" parent="1" target="vFDzJ-DQBdxWpcwLOdHJ-26">
          <mxGeometry width="50" height="50" relative="1" as="geometry">
            <mxPoint x="673" y="420" as="sourcePoint" />
            <mxPoint x="420" y="450" as="targetPoint" />
          </mxGeometry>
        </mxCell>
        <mxCell id="vFDzJ-DQBdxWpcwLOdHJ-38" value="" style="endArrow=classic;html=1;exitX=1;exitY=0.5;exitDx=0;exitDy=0;entryX=0;entryY=0.5;entryDx=0;entryDy=0;" edge="1" parent="1" target="vFDzJ-DQBdxWpcwLOdHJ-51">
          <mxGeometry width="50" height="50" relative="1" as="geometry">
            <mxPoint x="770" y="459.41" as="sourcePoint" />
            <mxPoint x="876.25" y="459.41" as="targetPoint" />
          </mxGeometry>
        </mxCell>
        <mxCell id="vFDzJ-DQBdxWpcwLOdHJ-39" value="&lt;span style=&quot;font-size: 20px&quot;&gt;Kiểm tra nước&lt;/span&gt;" style="rounded=0;whiteSpace=wrap;html=1;strokeColor=#000000;fillColor=#CCCCCC;" vertex="1" parent="1">
          <mxGeometry x="1170" y="430" width="185" height="60" as="geometry" />
        </mxCell>
        <mxCell id="vFDzJ-DQBdxWpcwLOdHJ-46" value="" style="edgeStyle=orthogonalEdgeStyle;rounded=0;orthogonalLoop=1;jettySize=auto;html=1;" edge="1" parent="1" source="vFDzJ-DQBdxWpcwLOdHJ-40" target="vFDzJ-DQBdxWpcwLOdHJ-45">
          <mxGeometry relative="1" as="geometry" />
        </mxCell>
        <mxCell id="vFDzJ-DQBdxWpcwLOdHJ-54" value="" style="edgeStyle=orthogonalEdgeStyle;rounded=0;orthogonalLoop=1;jettySize=auto;html=1;" edge="1" parent="1" source="vFDzJ-DQBdxWpcwLOdHJ-40" target="vFDzJ-DQBdxWpcwLOdHJ-53">
          <mxGeometry relative="1" as="geometry" />
        </mxCell>
        <mxCell id="vFDzJ-DQBdxWpcwLOdHJ-40" value="" style="rhombus;whiteSpace=wrap;html=1;strokeColor=#000000;fillColor=#999999;" vertex="1" parent="1">
          <mxGeometry x="1243.75" y="580" width="37.5" height="30" as="geometry" />
        </mxCell>
        <mxCell id="vFDzJ-DQBdxWpcwLOdHJ-41" value="" style="endArrow=classic;html=1;exitX=0.5;exitY=1;exitDx=0;exitDy=0;entryX=0.5;entryY=0;entryDx=0;entryDy=0;" edge="1" parent="1" source="vFDzJ-DQBdxWpcwLOdHJ-39" target="vFDzJ-DQBdxWpcwLOdHJ-40">
          <mxGeometry width="50" height="50" relative="1" as="geometry">
            <mxPoint x="445" y="420" as="sourcePoint" />
            <mxPoint x="445" y="450" as="targetPoint" />
            <Array as="points" />
          </mxGeometry>
        </mxCell>
        <mxCell id="vFDzJ-DQBdxWpcwLOdHJ-58" value="" style="edgeStyle=orthogonalEdgeStyle;rounded=0;orthogonalLoop=1;jettySize=auto;html=1;" edge="1" parent="1" source="vFDzJ-DQBdxWpcwLOdHJ-45" target="vFDzJ-DQBdxWpcwLOdHJ-51">
          <mxGeometry relative="1" as="geometry">
            <Array as="points">
              <mxPoint x="983" y="560" />
              <mxPoint x="983" y="560" />
            </Array>
          </mxGeometry>
        </mxCell>
        <mxCell id="vFDzJ-DQBdxWpcwLOdHJ-45" value="&lt;font style=&quot;font-size: 20px&quot;&gt;Đổi nước&lt;/font&gt;" style="whiteSpace=wrap;html=1;fillColor=#CCCCCC;" vertex="1" parent="1">
          <mxGeometry x="930" y="565" width="120" height="60" as="geometry" />
        </mxCell>
        <mxCell id="vFDzJ-DQBdxWpcwLOdHJ-47" value="&lt;font style=&quot;font-size: 20px&quot;&gt;Không hợp lệ&lt;/font&gt;" style="text;html=1;strokeColor=none;fillColor=none;align=center;verticalAlign=middle;whiteSpace=wrap;rounded=0;" vertex="1" parent="1">
          <mxGeometry x="1075" y="565" width="146.25" height="20" as="geometry" />
        </mxCell>
        <mxCell id="vFDzJ-DQBdxWpcwLOdHJ-51" value="&lt;span style=&quot;font-size: 20px&quot;&gt;Giao nước&lt;/span&gt;" style="rounded=0;whiteSpace=wrap;html=1;strokeColor=#000000;fillColor=#CCCCCC;" vertex="1" parent="1">
          <mxGeometry x="890" y="430" width="185" height="60" as="geometry" />
        </mxCell>
        <mxCell id="vFDzJ-DQBdxWpcwLOdHJ-52" value="" style="endArrow=classic;html=1;exitX=1;exitY=0.5;exitDx=0;exitDy=0;entryX=0;entryY=0.5;entryDx=0;entryDy=0;" edge="1" parent="1" source="vFDzJ-DQBdxWpcwLOdHJ-51" target="vFDzJ-DQBdxWpcwLOdHJ-39">
          <mxGeometry width="50" height="50" relative="1" as="geometry">
            <mxPoint x="780" y="469.4100000000001" as="sourcePoint" />
            <mxPoint x="886.25" y="469.4100000000001" as="targetPoint" />
          </mxGeometry>
        </mxCell>
        <mxCell id="vFDzJ-DQBdxWpcwLOdHJ-60" value="" style="edgeStyle=orthogonalEdgeStyle;rounded=0;orthogonalLoop=1;jettySize=auto;html=1;" edge="1" parent="1" source="vFDzJ-DQBdxWpcwLOdHJ-53" target="vFDzJ-DQBdxWpcwLOdHJ-59">
          <mxGeometry relative="1" as="geometry" />
        </mxCell>
        <mxCell id="vFDzJ-DQBdxWpcwLOdHJ-53" value="&lt;font style=&quot;font-size: 19px&quot;&gt;Dùng cà phê&lt;/font&gt;" style="whiteSpace=wrap;html=1;fillColor=#CCCCCC;" vertex="1" parent="1">
          <mxGeometry x="1161.25" y="715" width="202.5" height="60" as="geometry" />
        </mxCell>
        <mxCell id="vFDzJ-DQBdxWpcwLOdHJ-56" value="&lt;font style=&quot;font-size: 20px&quot;&gt;Hợp lệ&lt;/font&gt;" style="text;html=1;strokeColor=none;fillColor=none;align=center;verticalAlign=middle;whiteSpace=wrap;rounded=0;" vertex="1" parent="1">
          <mxGeometry x="1140" y="650" width="146.25" height="20" as="geometry" />
        </mxCell>
        <mxCell id="vFDzJ-DQBdxWpcwLOdHJ-83" value="" style="edgeStyle=orthogonalEdgeStyle;rounded=0;orthogonalLoop=1;jettySize=auto;html=1;" edge="1" parent="1" source="vFDzJ-DQBdxWpcwLOdHJ-59" target="vFDzJ-DQBdxWpcwLOdHJ-82">
          <mxGeometry relative="1" as="geometry" />
        </mxCell>
        <mxCell id="vFDzJ-DQBdxWpcwLOdHJ-59" value="&lt;font style=&quot;font-size: 20px&quot;&gt;In hóa đơn &lt;br&gt;và thanh toán&lt;/font&gt;" style="whiteSpace=wrap;html=1;fillColor=#CCCCCC;" vertex="1" parent="1">
          <mxGeometry x="870" y="715" width="170" height="60" as="geometry" />
        </mxCell>
        <mxCell id="vFDzJ-DQBdxWpcwLOdHJ-61" value="&lt;font style=&quot;font-size: 20px&quot;&gt;Tiền&lt;/font&gt;" style="ellipse;whiteSpace=wrap;html=1;aspect=fixed;strokeColor=#000000;fillColor=#CCCCCC;" vertex="1" parent="1">
          <mxGeometry x="770" y="550" width="80" height="80" as="geometry" />
        </mxCell>
        <mxCell id="vFDzJ-DQBdxWpcwLOdHJ-62" value="" style="endArrow=none;dashed=1;html=1;" edge="1" parent="1">
          <mxGeometry width="50" height="50" relative="1" as="geometry">
            <mxPoint x="900" y="700" as="sourcePoint" />
            <mxPoint x="840" y="623" as="targetPoint" />
          </mxGeometry>
        </mxCell>
        <mxCell id="vFDzJ-DQBdxWpcwLOdHJ-63" value="" style="endArrow=classic;html=1;entryX=0.25;entryY=0;entryDx=0;entryDy=0;" edge="1" parent="1" target="vFDzJ-DQBdxWpcwLOdHJ-59">
          <mxGeometry width="50" height="50" relative="1" as="geometry">
            <mxPoint x="900" y="700" as="sourcePoint" />
            <mxPoint x="920" y="720" as="targetPoint" />
            <Array as="points" />
          </mxGeometry>
        </mxCell>
        <mxCell id="vFDzJ-DQBdxWpcwLOdHJ-71" value="&lt;font style=&quot;font-size: 20px&quot;&gt;Hóa đơn&lt;/font&gt;" style="ellipse;whiteSpace=wrap;html=1;aspect=fixed;strokeColor=#000000;fillColor=#CCCCCC;" vertex="1" parent="1">
          <mxGeometry x="780" y="840" width="80" height="80" as="geometry" />
        </mxCell>
        <mxCell id="vFDzJ-DQBdxWpcwLOdHJ-72" value="" style="endArrow=none;dashed=1;html=1;entryX=1;entryY=0;entryDx=0;entryDy=0;" edge="1" parent="1" target="vFDzJ-DQBdxWpcwLOdHJ-71">
          <mxGeometry width="50" height="50" relative="1" as="geometry">
            <mxPoint x="900" y="790" as="sourcePoint" />
            <mxPoint x="850" y="913" as="targetPoint" />
          </mxGeometry>
        </mxCell>
        <mxCell id="vFDzJ-DQBdxWpcwLOdHJ-73" value="" style="endArrow=classic;html=1;" edge="1" parent="1">
          <mxGeometry width="50" height="50" relative="1" as="geometry">
            <mxPoint x="900" y="790" as="sourcePoint" />
            <mxPoint x="910" y="780" as="targetPoint" />
            <Array as="points" />
          </mxGeometry>
        </mxCell>
        <mxCell id="vFDzJ-DQBdxWpcwLOdHJ-82" value="" style="rhombus;whiteSpace=wrap;html=1;fillColor=#CCCCCC;" vertex="1" parent="1">
          <mxGeometry x="652.5" y="727.5" width="40" height="35" as="geometry" />
        </mxCell>
        <mxCell id="vFDzJ-DQBdxWpcwLOdHJ-89" value="" style="edgeStyle=orthogonalEdgeStyle;rounded=0;orthogonalLoop=1;jettySize=auto;html=1;" edge="1" parent="1">
          <mxGeometry relative="1" as="geometry">
            <mxPoint x="652.5" y="744.41" as="sourcePoint" />
            <mxPoint x="475" y="744.41" as="targetPoint" />
          </mxGeometry>
        </mxCell>
      </root>
    </mxGraphModel>
  </diagram>
</mxfile>
